<svg id="Layer_1" data-name="Layer 1" xmlns="http://www.w3.org/2000/svg" xmlns:xlink="http://www.w3.org/1999/xlink" viewBox="0 0 447.19 365.67"><defs><style>.cls-1{fill:none;}.cls-2{clip-path:url(#clip-path);}.cls-3{fill:#f1f2f2;}</style><clipPath id="clip-path" transform="translate(-172 -123.33)"><rect class="cls-1" x="172" y="123.33" width="447.18" height="365.67"/></clipPath></defs><title>Proofpoiunt Vector Nexus 2-f1f2f2</title><g class="cls-2"><path class="cls-3" d="M217.74,195.26a5.69,5.69,0,0,0,2.2.76l-9.08,140.26L176,259.2a2.79,2.79,0,0,0,.7-.43,2.81,2.81,0,0,0-.24-4.48Zm-6.27,140.94,9.07-140.13a5.7,5.7,0,0,0,1-.06l43.65,190.54a5.67,5.67,0,0,0-2.45,1.24c-.11.1-.21.2-.31.3l-47.88-47.6a2.83,2.83,0,0,0-3-4.29m1.89,5.31a2.8,2.8,0,0,0,.62-.4l.15-.16L262,388.53a5.69,5.69,0,0,0,4.29,9.26l-2.67,34.41-.7,9a2.81,2.81,0,0,0-1,.33L245.2,407.11h0Zm32.37,68.06,15.68,32.32-.12.12-11.57-13.4Zm19.9,36.07a2.82,2.82,0,0,0,.5-1.68l96.11-22.82a2.8,2.8,0,0,0,.63,1.31,2.75,2.75,0,0,0,.4.38l-29.58,60.66a2.84,2.84,0,0,0-2.85.5,3,3,0,0,0-.21.23ZM335,484.58a2.81,2.81,0,0,0-.21-.3,2.87,2.87,0,0,0-.63-.53l11.46-23.5,18.1-37.1a2.82,2.82,0,0,0,3.9-1.55l13.58,5.17L426.53,444Zm92.37-40.89-51.3-19.52-6.88-2.62,125.43,29.69a5.69,5.69,0,1,0,11.12,2.42l75.33,15a9.79,9.79,0,0,0,.2,3.67l-48.92,11.26-105-40ZM592.5,460.45a9.6,9.6,0,0,0-1.37-.14l-.55-15-.59-16.2,4.5,5.22a2.84,2.84,0,0,0,1.41,5ZM590.16,450l.38,10.3a10,10,0,0,0-2,.26l-4.33-14.38-18.39-61a2.85,2.85,0,0,0,1.28-4.57l-.08-.07,7.88-11.34,11.69-16.84,2.77,76h0Zm-23.59-69.91a2.83,2.83,0,0,0-2.73-.28L528.78,297.4a2.86,2.86,0,0,0,.75-.45,2.82,2.82,0,0,0,.92-1.6l77.4,15.5a5.68,5.68,0,0,0,3.66,4.52Zm45.33-75.53a5.67,5.67,0,0,0-1.55.72l-23.13-34.93a2.84,2.84,0,0,0-3-4.66L544.07,201.4a2.79,2.79,0,0,0,.36-.25,2.85,2.85,0,0,0,1-2.5l32.37-4a2.85,2.85,0,0,0,2.28.51ZM576.42,191.37l-91.47-59.94,0,0,29.35,6.28Zm-96.21-60.54a2.74,2.74,0,0,0,.4.64,2.82,2.82,0,0,0,1,.73L424.9,192.62a2.81,2.81,0,0,0-1.36-.54L415.67,129a2.85,2.85,0,0,0,2.49-2.62Zm-67.45-3.4a2.88,2.88,0,0,0,.39.61,2.84,2.84,0,0,0,1.9,1l1.78,14.28,6.08,48.76a2.8,2.8,0,0,0-2.45,2l-114.6-7Zm-20.91,65.44,28.5,1.74c0,.09,0,.18,0,.27l-104.81,22.4-17.38-4.93-23.66-6.71,19.42-16.77a2.85,2.85,0,0,0,5-1.69ZM273.79,206.06h0l19.57,5.55L410.89,245a5.68,5.68,0,0,0,1.22,4.58l-79.62,61.84c-.09-.11-.17-.23-.27-.34a9.74,9.74,0,0,0-13.1-1.51L224.34,194.73l.06,0a5.68,5.68,0,0,0,1.56-2.19Zm-8,180.38-21.61-94.35-22-96.21a5.65,5.65,0,0,0,1.77-.79l75.49,91.43,19.3,23.37-.17.13a9.75,9.75,0,0,0,.42,15.1l-8.49,11-40,51.91a5.7,5.7,0,0,0-4.68-1.6m229.09,64.23-127-30.06a2.82,2.82,0,0,0-3.58-2.76L329,326.23a9.7,9.7,0,0,0,2.26-1.45,9.83,9.83,0,0,0,1.32-1.38l21.69,16.71,141.46,109a5.68,5.68,0,0,0-.84,1.57m33.36-153.1,35.1,82.53a2.62,2.62,0,0,0-.23.16,2.81,2.81,0,0,0-.73,1L485.89,338a9.74,9.74,0,0,0-1.31-10.53l40.65-31.26a2.79,2.79,0,0,0,.28.4,2.83,2.83,0,0,0,2.69.92m15.32-95.91L583.69,266a2.89,2.89,0,0,0-.36.25,2.84,2.84,0,0,0-.73,3.31l-48.26,21.37-4.55,2a2.85,2.85,0,0,0-3.52-.59l-19.88-33.09L494.23,239a2.88,2.88,0,0,0,.58-.38,2.84,2.84,0,0,0,.7-3.38l44.7-34.64a3.21,3.21,0,0,0,.2.29,2.84,2.84,0,0,0,3.12.81M412.78,241.61a5.68,5.68,0,0,0-1.76,2.76l-94.26-26.74,103.64-22.15a2.78,2.78,0,0,0,2.4,2.22l-3.47,26.5-2.1,16.07a5.68,5.68,0,0,0-4.46,1.33m-79.93,70.24L412.51,250a5.7,5.7,0,0,0,7,.79l51.86,75.16c-.2.15-.39.29-.58.45a9.68,9.68,0,0,0-3.19,5.54l-133-13.87a9.72,9.72,0,0,0-1.71-6.22M425,197a2.83,2.83,0,0,0,.67-.85L463,219.12l27.15,16.68a2.82,2.82,0,0,0,0,1.2l-68,8.33a5.68,5.68,0,0,0-4.34-5l5.59-42.66A2.82,2.82,0,0,0,425,197M525,295.69l-40.8,31.37a9.73,9.73,0,0,0-12.35-1.46l-31.64-45.86L420,250.44l.26-.2a5.68,5.68,0,0,0,2-4.29l68.16-8.35a2.89,2.89,0,0,0,.43.7,2.84,2.84,0,0,0,2.86.89l32.13,53.48a2.84,2.84,0,0,0-.81,3M496.49,448.25a5.19,5.19,0,0,0-.42.4L332.87,322.9a9.7,9.7,0,0,0,1.62-4.24l133,13.87a9.73,9.73,0,0,0,11,10.9L498.93,447a5.66,5.66,0,0,0-2.44,1.24M319.39,325.46a9.75,9.75,0,0,0,9,1l17.31,44.88,18,46.72a2.88,2.88,0,0,0-.56.37,2.83,2.83,0,0,0-.64.82L340.15,413l-68.38-19a5.69,5.69,0,0,0-.94-5.57ZM483.22,132.41,491.08,222l1,11.66a2.8,2.8,0,0,0-1.74,1.51l-27-16.59-37.43-23a2.85,2.85,0,0,0-.59-2.6h0l56.91-60.63a2.82,2.82,0,0,0,1,0m57.12,64.8a2.84,2.84,0,0,0-.42,2.81l-2.35,1.82-42.38,32.84-.09-.12a2.84,2.84,0,0,0-2.4-1L483.8,132.25a2.78,2.78,0,0,0,.34-.15Zm36.89-3.08-32,3.92a2.83,2.83,0,0,0-4.49-1.27L485,132.18l91.64,60.05a2.84,2.84,0,0,0,.59,1.9m30.56,116.08-77.29-15.48a2.8,2.8,0,0,0-.35-1.35L582.9,270c0,.06.08.13.13.19a2.84,2.84,0,0,0,3.72.51l8.61,13,14.5,21.9-.1.08a5.69,5.69,0,0,0-2,4.51M584.4,462.66a9.69,9.69,0,0,0-3.18,5.47l-75.34-15a5.69,5.69,0,0,0-6.37-6.18L479,343.33a9.65,9.65,0,0,0,6.59-4.76l76.56,43.28a2.83,2.83,0,0,0,3.07,3.4L588,460.71a9.69,9.69,0,0,0-3.56,1.95m-319.51-39.2,2-25.68a5.69,5.69,0,0,0,4.65-3.15l90.75,25.18a2.84,2.84,0,0,0-.1.74l-96.12,22.82a2.81,2.81,0,0,0-2.54-2.18Zm-47.95-237.4a5.69,5.69,0,0,0,.3,8.86L175.95,254a2.84,2.84,0,1,0-.5,5.39l35,77.32-.13.09a2.84,2.84,0,0,0,2.53,4.91l31.85,65.63,4.51,21.47a.31.31,0,0,0,.07.13l11.69,13.54a2.84,2.84,0,0,0,4.25,3.69l.07-.08,65,38.6a2.84,2.84,0,1,0,5.08.41l92-40.81,105,39.94a.28.28,0,0,0,.17,0l49-11.28a9.75,9.75,0,1,0,11.61-12.4l3.42-21.26A2.84,2.84,0,1,0,595,434l-5-5.83-2.8-76.67,25-35.93a5.7,5.7,0,1,0,.37-11.13L580.61,195a2.84,2.84,0,1,0-3-4.76,2.83,2.83,0,0,0-.64.81l-62.32-53.88a.32.32,0,0,0-.13-.07l-29.2-6.25a2.85,2.85,0,1,0-5.33-.65l-61.87-4.44a2.84,2.84,0,1,0-5.57,1.08L304.77,186.94l-5.9-.36a2.81,2.81,0,0,0-.65-1.43,2.85,2.85,0,0,0-4.65,3.23L273.8,205.44l-47.65-13.52a5.7,5.7,0,0,0-9.2-5.87" transform="translate(-172 -123.33)"/></g></svg>